<?xml version="1.0" encoding="utf-8"?>
<!-- Generator: Adobe Illustrator 27.1.1, SVG Export Plug-In . SVG Version: 6.00 Build 0)  -->
<svg version="1.1" id="layer1" xmlns="http://www.w3.org/2000/svg" xmlns:xlink="http://www.w3.org/1999/xlink" x="0px" y="0px"
	 viewBox="0 0 75 75" style="enable-background:new 0 0 75 75;" xml:space="preserve">
<style type="text/css">
	.st0{fill:#FFFFFF;}
</style>
<g>
	<g>
		<path class="st0" d="M72,0h-3h-3h-3h-3h-3h-3v3v3v3v3v3v3v3h3h3h3h3h3h3h3v-3v-3v-3V9V6V3V0H72z M72,6v3v3v3v3h-3h-3h-3h-3h-3v-3
			v-3V9V6V3h3h3h3h3h3V6z"/>
		<rect x="24" y="6" class="st0" width="3" height="3"/>
		<polygon class="st0" points="63,6 60,6 60,9 60,12 60,15 63,15 66,15 69,15 69,12 69,9 69,6 66,6 		"/>
		<polygon class="st0" points="12,15 15,15 15,12 15,9 15,6 12,6 9,6 6,6 6,9 6,12 6,15 9,15 		"/>
		<path class="st0" d="M6,21h3h3h3h3h3v-3v-3v-3V9V6V3V0h-3h-3h-3H9H6H3H0v3v3v3v3v3v3v3h3H6z M3,15v-3V9V6V3h3h3h3h3h3v3v3v3v3v3
			h-3h-3H9H6H3V15z"/>
		<polygon class="st0" points="6,24 3,24 0,24 0,27 3,27 6,27 9,27 9,24 		"/>
		<rect x="66" y="24" class="st0" width="3" height="3"/>
		<rect x="9" y="27" class="st0" width="3" height="3"/>
		<polygon class="st0" points="72,30 69,30 66,30 66,33 69,33 69,36 69,39 72,39 72,42 69,42 66,42 66,45 69,45 69,48 72,48 72,45 
			75,45 75,42 75,39 75,36 72,36 72,33 75,33 75,30 75,27 72,27 		"/>
		<rect x="3" y="30" class="st0" width="3" height="3"/>
		<path class="st0" d="M63,30h-3v-3h-3v-3h-3h-3v-3v-3h-3v3v3h-3v-3v-3h3v-3v-3V9h3V6V3h-3V0h-3h-3h-3v3h3v3h3v3h-3v3h-3v3v3h3v3h-3
			v-3h-3v3v3h-3v-3v-3h3v-3v-3h3V9V6h-3v3h-3V6h3V3V0h-3h-3h-3v3h3v3v3v3v3v3v3h-3v-3h-3v3v3h-3h-3h-3h-3v3h3v3h-3v3h3v3h3v-3h3h3h3
			h3v-3h-3v-3v-3h3v3h3h3h3h3h3h3h3v3h-3v3h3v3v3h-3v3h3h3h3v-3v-3h3h3v-3V30z M18,30v-3h3v3H18z M54,33v-3h3v3H54z"/>
		<polygon class="st0" points="45,36 45,33 42,33 42,30 39,30 39,33 39,36 42,36 		"/>
		<polygon class="st0" points="21,39 24,39 24,36 21,36 18,36 18,39 		"/>
		<polygon class="st0" points="66,36 63,36 63,39 63,42 66,42 66,39 		"/>
		<polygon class="st0" points="9,39 9,36 12,36 12,33 9,33 6,33 6,36 6,39 6,42 6,45 3,45 3,48 6,48 9,48 9,45 12,45 12,42 9,42 		
			"/>
		<polygon class="st0" points="15,39 15,36 12,36 12,39 12,42 15,42 18,42 18,39 		"/>
		<rect y="42" class="st0" width="3" height="3"/>
		<rect x="18" y="42" class="st0" width="3" height="3"/>
		<rect x="30" y="42" class="st0" width="3" height="3"/>
		<rect x="57" y="42" class="st0" width="3" height="3"/>
		<rect y="48" class="st0" width="3" height="3"/>
		<path class="st0" d="M57,48h-3h-3v-3h-3h-3v-3v-3h-3h-3v-3h-3v3v3v3v3h3v3h3v-3h3h3v3v3h-3h-3h-3v-3h-3h-3h-3v-3v-3h-3v-3h-3v3v3
			h-3h-3v-3h-3v3h-3v3h3h3h3h3v3v3v3v3h3v3h-3v3v3v3h3h3v-3h3h3v-3h-3h-3v-3h3v-3v-3v-3v-3h3v3h3v3h-3v3v3h3v3v3h3v-3h3v3v3h3h3h3h3
			h3v-3h-3v-3h-3v3h-3v-3v-3v-3h3h3v3h3v3v3h3h3v-3h-3v-3h3h3v-3h-3v-3v-3v-3v-3v-3h-3v-3h-3v3H57z M30,60h-3v-3h3V60z M48,66h-3h-3
			v-3v-3h3v-3h3v3v3V66z M54,60h-3v-3v-3v-3h3h3h3v3v3v3h-3H54z"/>
		<path class="st0" d="M15,54h-3H9H6H3H0v3v3v3v3v3v3v3h3h3h3h3h3h3h3v-3v-3v-3v-3v-3v-3v-3h-3H15z M18,60v3v3v3v3h-3h-3H9H6H3v-3
			v-3v-3v-3v-3h3h3h3h3h3V60z"/>
		<rect x="54" y="54" class="st0" width="3" height="3"/>
		<polygon class="st0" points="75,57 75,54 75,51 72,51 69,51 69,54 69,57 72,57 72,60 75,60 		"/>
		<polygon class="st0" points="9,60 6,60 6,63 6,66 6,69 9,69 12,69 15,69 15,66 15,63 15,60 12,60 		"/>
		<rect x="69" y="60" class="st0" width="3" height="3"/>
		<rect x="72" y="66" class="st0" width="3" height="3"/>
		<polygon class="st0" points="69,72 69,75 72,75 75,75 75,72 72,72 72,69 69,69 		"/>
		<rect x="36" y="72" class="st0" width="3" height="3"/>
	</g>
</g>
</svg>
