<?xml version="1.0" encoding="utf-8"?>
<!-- Generator: Adobe Illustrator 27.1.1, SVG Export Plug-In . SVG Version: 6.00 Build 0)  -->
<svg version="1.1" id="Layer_1" xmlns="http://www.w3.org/2000/svg" xmlns:xlink="http://www.w3.org/1999/xlink" x="0px" y="0px"
	 viewBox="0 0 806.4 351.1" style="enable-background:new 0 0 806.4 351.1;" xml:space="preserve">
<style type="text/css">
	.st0{fill:none;}
	.st1{fill:#0F62FE;}
</style>
<rect x="-933.4" y="-156.8" class="st0" width="1920" height="1080"/>
<g>
	<path class="st0" d="M798.7,351.1C712,346.1,612.8,281.5,539.6,239c-79.9-46.3-129.7-66.1-209.9-77.5
		C249.5,150.1,139.4,147,70,95.9C38.3,72.4,15.2,38.9,0,0h0"/>
	<path class="st1" d="M70,95.9c69.4,51,179.5,54.1,259.7,65.5c80.2,11.4,129.9,31.2,209.9,77.5c73.3,42.5,172.5,107.1,259.1,112.1
		h7.7V0H0C15.2,38.9,38.3,72.4,70,95.9z"/>
</g>
</svg>
