<?xml version="1.0" encoding="utf-8"?>
<!-- Generator: Adobe Illustrator 27.1.1, SVG Export Plug-In . SVG Version: 6.00 Build 0)  -->
<svg version="1.1" id="Layer_1" xmlns="http://www.w3.org/2000/svg" xmlns:xlink="http://www.w3.org/1999/xlink" x="0px" y="0px"
	 viewBox="0 0 466 699" style="enable-background:new 0 0 466 699;" xml:space="preserve">
<style type="text/css">
	.st0{fill:#0F62FE;}
	.st1{fill:#CC1F1F;}
	.st2{fill:#D6D618;}
	.st3{fill:#050F19;}
</style>
<path class="st0" d="M212.8,45.1c-20.1,24-51.9,25.4-75,30.8c-23.2,5.4-37.5,14.7-60.6,36.4c-21.2,20-49.8,50.3-74.9,52.7H0V0h233
	C228.6,18.3,221.9,34,212.8,45.1z"/>
<path class="st1" d="M391.2,0c-3.9,5.5-7.3,11.4-10.2,17.8c-16.1,35.5-15.8,84.8-6.9,125.6c8.9,40.9,26.4,73.6,36.7,119.5
	c10.3,46.3,13.7,106.2,35.7,141.8c5.5,9,12.1,16.5,19.5,22.3V0H391.2z"/>
<path class="st2" d="M406.1,662c-34.5-13-107.2-9.8-165.7-19.1S138,612.2,92,611c-34.8-0.8-70.8,10.2-92,25.2V699h428.1
	C433.6,684.4,427.5,670.1,406.1,662z"/>
<g>
	<path class="st3" d="M458,8v683H8V8H458 M466,0H0v699h466V0L466,0z"/>
</g>
</svg>
