<?xml version="1.0" encoding="utf-8"?>
<!-- Generator: Adobe Illustrator 27.1.1, SVG Export Plug-In . SVG Version: 6.00 Build 0)  -->
<svg version="1.1" id="Layer_1" xmlns="http://www.w3.org/2000/svg" xmlns:xlink="http://www.w3.org/1999/xlink" x="0px" y="0px"
	 viewBox="0 0 100 100" style="enable-background:new 0 0 100 100;" xml:space="preserve">
<style type="text/css">
	.st0{fill:#FFFFFF;}
</style>
<g id="LANG">
	<path class="st0" d="M51,18c-0.2,0-0.4-0.1-0.6,0H50c-17.7,0-32,14.3-32,32s14.3,32,32,32h0.6c0.1,0,0.3,0,0.4,0
		C68.4,81.4,82,67.3,82,50S68.4,18.6,51,18z M63.5,43.2h11.8c0.6,2.2,0.9,4.5,0.9,6.8s-0.3,4.5-0.9,6.8H63.5
		c0.2-2.2,0.3-4.5,0.3-6.8S63.7,45.5,63.5,43.2z M62.7,37.4c-0.8-4.7-2-8.8-3.6-12C65,27.6,70,31.8,73,37.4H62.7z M58,50
		c0,2.3-0.1,4.5-0.3,6.8H43.5c-0.2-2.2-0.3-4.5-0.3-6.8s0.1-4.5,0.3-6.8h14.1C57.9,45.5,58,47.7,58,50z M44.4,37.4
		c0.5-2.8,1.2-5.4,2.1-7.5c1.7-4.3,3.5-5.9,4.1-6h0.1c0.6,0.2,2.4,1.9,4.1,6c0.9,2.2,1.6,4.7,2.1,7.5H44.4z M27,37.4
		C30.3,31.4,35.9,27,42.3,25c-1.7,3.3-3,7.6-3.8,12.5L27,37.4L27,37.4z M38.5,62.5c0.8,4.9,2.2,9.2,3.8,12.5
		c-6.5-2-12-6.5-15.3-12.5H38.5z M56.9,62.5c-0.5,2.8-1.2,5.4-2.1,7.6c-1.7,4.2-3.5,5.8-4.1,6h-0.1c-0.6-0.1-2.4-1.7-4.1-6
		c-0.9-2.2-1.6-4.7-2.1-7.6H56.9z M73,62.5c-3,5.6-7.9,9.8-13.8,12c1.5-3.2,2.8-7.3,3.6-12C62.7,62.5,73,62.5,73,62.5z M37.7,56.8
		H24.7c-0.6-2.2-0.9-4.5-0.9-6.8s0.3-4.5,0.9-6.8h13.1c-0.2,2.2-0.3,4.5-0.3,6.8C37.5,52.3,37.5,54.5,37.7,56.8z"/>
</g>
</svg>
