<?xml version="1.0" encoding="utf-8"?>
<!-- Generator: Adobe Illustrator 27.1.1, SVG Export Plug-In . SVG Version: 6.00 Build 0)  -->
<svg version="1.1" id="Layer_1" xmlns="http://www.w3.org/2000/svg" xmlns:xlink="http://www.w3.org/1999/xlink" x="0px" y="0px"
	 viewBox="0 0 100 100" style="enable-background:new 0 0 100 100;" xml:space="preserve">
<style type="text/css">
	.st0{fill:#FFFFFF;}
</style>
<path class="st0" d="M82,51.1C82,68.1,68.1,82,51.1,82c-6.7,0-13.1-2.2-18.5-6.2c-1.9-1.5-2.4-4.2-0.9-6.2c1.5-1.9,4.2-2.4,6.2-0.9
	c3.8,2.9,8.4,4.4,13.2,4.4c12.2,0,22-9.9,22-22s-9.9-22-22-22c-6.9,0-13.4,3.3-17.6,8.8h8.8c2.4,0,4.4,2,4.4,4.4
	c0,2.4-2,4.4-4.4,4.4H22.5c-2.4,0-4.4-2-4.4-4.4V22.5C18,20,20,18,22.4,18s4.4,2,4.4,4.4v9.7c5.8-7.4,14.7-11.9,24.3-11.9
	C68.1,20.2,82,34.1,82,51.1z"/>
</svg>
