<?xml version="1.0" encoding="utf-8"?>
<!-- Generator: Adobe Illustrator 27.1.1, SVG Export Plug-In . SVG Version: 6.00 Build 0)  -->
<svg version="1.1" id="Layer_1" xmlns="http://www.w3.org/2000/svg" xmlns:xlink="http://www.w3.org/1999/xlink" x="0px" y="0px"
	 viewBox="0 0 100 100" style="enable-background:new 0 0 100 100;" xml:space="preserve">
<style type="text/css">
	.st0{fill:#FFFFFF;}
</style>
<path class="st0" d="M43.6,24.4c0-3.5,2.9-6.4,6.4-6.4s6.4,2.9,6.4,6.4s-2.9,6.4-6.4,6.4S43.6,28,43.6,24.4z M37.2,43.6
	c0-2.4,1.9-4.3,4.3-4.3H50c2.4,0,4.3,1.9,4.3,4.3v29.9h4.3c2.4,0,4.3,1.9,4.3,4.3S61,82,58.6,82H41.5c-2.4,0-4.3-1.9-4.3-4.3
	s1.9-4.3,4.3-4.3h4.3V47.9h-4.3C39.1,47.9,37.2,46,37.2,43.6z"/>
</svg>
